<svg width="24" height="24" viewBox="0 0 24 24" fill="none" xmlns="http://www.w3.org/2000/svg">
<g clip-path="url(#clip0_1411_6488)">
<path d="M23 16.0003C22.7348 16.0003 22.4804 16.1057 22.2929 16.2932C22.1053 16.4807 22 16.7351 22 17.0003V19.0003C22 19.796 21.6839 20.559 21.1213 21.1216C20.5587 21.6842 19.7956 22.0003 19 22.0003H17C16.7348 22.0003 16.4804 22.1057 16.2929 22.2932C16.1054 22.4807 16 22.7351 16 23.0003C16 23.2655 16.1054 23.5199 16.2929 23.7074C16.4804 23.8949 16.7348 24.0003 17 24.0003H19C20.3256 23.9987 21.5964 23.4714 22.5338 22.5341C23.4711 21.5968 23.9984 20.3259 24 19.0003V17.0003C24 16.7351 23.8946 16.4807 23.7071 16.2932C23.5196 16.1057 23.2652 16.0003 23 16.0003Z" fill="#61DAFB"/>
<path d="M1 8C1.26522 8 1.51957 7.89464 1.70711 7.70711C1.89464 7.51957 2 7.26522 2 7V5C2 4.20435 2.31607 3.44129 2.87868 2.87868C3.44129 2.31607 4.20435 2 5 2H7C7.26522 2 7.51957 1.89464 7.70711 1.70711C7.89464 1.51957 8 1.26522 8 1C8 0.734784 7.89464 0.48043 7.70711 0.292893C7.51957 0.105357 7.26522 0 7 0L5 0C3.67441 0.00158786 2.40356 0.528882 1.46622 1.46622C0.528882 2.40356 0.00158786 3.67441 0 5L0 7C0 7.26522 0.105357 7.51957 0.292893 7.70711C0.48043 7.89464 0.734784 8 1 8Z" fill="#61DAFB"/>
<path d="M7 22.0003H5C4.20435 22.0003 3.44129 21.6842 2.87868 21.1216C2.31607 20.559 2 19.796 2 19.0003V17.0003C2 16.7351 1.89464 16.4807 1.70711 16.2932C1.51957 16.1057 1.26522 16.0003 1 16.0003C0.734784 16.0003 0.48043 16.1057 0.292893 16.2932C0.105357 16.4807 0 16.7351 0 17.0003L0 19.0003C0.00158786 20.3259 0.528882 21.5968 1.46622 22.5341C2.40356 23.4714 3.67441 23.9987 5 24.0003H7C7.26522 24.0003 7.51957 23.8949 7.70711 23.7074C7.89464 23.5199 8 23.2655 8 23.0003C8 22.7351 7.89464 22.4807 7.70711 22.2932C7.51957 22.1057 7.26522 22.0003 7 22.0003Z" fill="#61DAFB"/>
<path d="M19 0H17C16.7348 0 16.4804 0.105357 16.2929 0.292893C16.1054 0.48043 16 0.734784 16 1C16 1.26522 16.1054 1.51957 16.2929 1.70711C16.4804 1.89464 16.7348 2 17 2H19C19.7956 2 20.5587 2.31607 21.1213 2.87868C21.6839 3.44129 22 4.20435 22 5V7C22 7.26522 22.1053 7.51957 22.2929 7.70711C22.4804 7.89464 22.7348 8 23 8C23.2652 8 23.5196 7.89464 23.7071 7.70711C23.8946 7.51957 24 7.26522 24 7V5C23.9984 3.67441 23.4711 2.40356 22.5338 1.46622C21.5964 0.528882 20.3256 0.00158786 19 0V0Z" fill="#61DAFB"/>
<path d="M12 11C12.7911 11 13.5645 10.7654 14.2223 10.3258C14.8801 9.88631 15.3928 9.26159 15.6955 8.53069C15.9983 7.79979 16.0775 6.99552 15.9231 6.21959C15.7688 5.44367 15.3878 4.73094 14.8284 4.17153C14.269 3.61212 13.5563 3.23116 12.7804 3.07681C12.0044 2.92247 11.2002 3.00169 10.4693 3.30444C9.73836 3.60719 9.11365 4.11988 8.67412 4.77767C8.2346 5.43547 8 6.20883 8 6.99996C8 8.06082 8.42143 9.07824 9.17157 9.82838C9.92172 10.5785 10.9391 11 12 11ZM12 4.99996C12.3956 4.99996 12.7822 5.11725 13.1111 5.33702C13.44 5.55678 13.6964 5.86914 13.8478 6.23459C13.9991 6.60004 14.0387 7.00217 13.9616 7.39014C13.8844 7.7781 13.6939 8.13446 13.4142 8.41417C13.1345 8.69387 12.7781 8.88436 12.3902 8.96153C12.0022 9.0387 11.6001 8.99909 11.2346 8.84772C10.8692 8.69634 10.5568 8.43999 10.3371 8.1111C10.1173 7.7822 10 7.39552 10 6.99996C10 6.46952 10.2107 5.96081 10.5858 5.58574C10.9609 5.21067 11.4696 4.99996 12 4.99996Z" fill="#61DAFB"/>
<path d="M18 20.0003C18.2652 20.0003 18.5196 19.895 18.7071 19.7074C18.8946 19.5199 19 19.2655 19 19.0003C18.9984 17.4095 18.3658 15.8843 17.2409 14.7594C16.116 13.6346 14.5908 13.0019 13 13.0003H11C9.40919 13.0019 7.88399 13.6346 6.75911 14.7594C5.63424 15.8843 5.00159 17.4095 5 19.0003C5 19.2655 5.10536 19.5199 5.29289 19.7074C5.48043 19.895 5.73478 20.0003 6 20.0003C6.26522 20.0003 6.51957 19.895 6.70711 19.7074C6.89464 19.5199 7 19.2655 7 19.0003C7 17.9395 7.42143 16.922 8.17157 16.1719C8.92172 15.4217 9.93913 15.0003 11 15.0003H13C14.0609 15.0003 15.0783 15.4217 15.8284 16.1719C16.5786 16.922 17 17.9395 17 19.0003C17 19.2655 17.1054 19.5199 17.2929 19.7074C17.4804 19.895 17.7348 20.0003 18 20.0003Z" fill="#61DAFB"/>
</g>
<defs>
<clipPath id="clip0_1411_6488">
<rect width="24" height="24" fill="white"/>
</clipPath>
</defs>
</svg>
